<mxfile host="app.diagrams.net" agent="Mozilla/5.0 (Windows NT 10.0; Win64; x64) AppleWebKit/537.36 (KHTML, like Gecko) Chrome/140.0.0.0 Safari/537.36" version="28.2.8">
  <diagram name="Seite-1" id="_ETfVOIDh7qn9XK83KMr">
    <mxGraphModel dx="1157" dy="635" grid="1" gridSize="10" guides="1" tooltips="1" connect="1" arrows="1" fold="1" page="1" pageScale="1" pageWidth="1200" pageHeight="1600" math="0" shadow="0">
      <root>
        <mxCell id="0" />
        <mxCell id="1" parent="0" />
        <mxCell id="LGxY-t_N6-eoSDwFkWoq-16" value="" style="rounded=1;whiteSpace=wrap;html=1;arcSize=3;" parent="1" vertex="1">
          <mxGeometry x="150" y="240" width="270" height="310" as="geometry" />
        </mxCell>
        <mxCell id="LGxY-t_N6-eoSDwFkWoq-13" value="" style="rounded=1;whiteSpace=wrap;html=1;arcSize=12;" parent="1" vertex="1">
          <mxGeometry x="160" y="280" width="250" height="30" as="geometry" />
        </mxCell>
        <mxCell id="LGxY-t_N6-eoSDwFkWoq-1" value="" style="rounded=1;whiteSpace=wrap;html=1;arcSize=3;movable=1;resizable=1;rotatable=1;deletable=1;editable=1;locked=0;connectable=1;absoluteArcSize=0;" parent="1" vertex="1">
          <mxGeometry x="160" y="330" width="250" height="180" as="geometry" />
        </mxCell>
        <mxCell id="LGxY-t_N6-eoSDwFkWoq-2" value="&amp;nbsp;Kinddaten" style="rounded=1;whiteSpace=wrap;html=1;arcSize=12;align=left;" parent="1" vertex="1">
          <mxGeometry x="160" y="250" width="250" height="20" as="geometry" />
        </mxCell>
        <mxCell id="LGxY-t_N6-eoSDwFkWoq-4" value="&amp;nbsp;Text" style="rounded=1;whiteSpace=wrap;html=1;align=center;" parent="1" vertex="1">
          <mxGeometry x="370" y="285" width="40" height="20" as="geometry" />
        </mxCell>
        <mxCell id="LGxY-t_N6-eoSDwFkWoq-5" value="Name" style="text;html=1;align=left;verticalAlign=middle;whiteSpace=wrap;rounded=0;" parent="1" vertex="1">
          <mxGeometry x="170" y="290" width="220" height="10" as="geometry" />
        </mxCell>
        <mxCell id="LGxY-t_N6-eoSDwFkWoq-7" value="&amp;nbsp;Optionen" style="rounded=1;whiteSpace=wrap;html=1;align=left;" parent="1" vertex="1">
          <mxGeometry x="290" y="340" width="110" height="20" as="geometry" />
        </mxCell>
        <mxCell id="LGxY-t_N6-eoSDwFkWoq-8" value="Geschlecht" style="text;html=1;align=left;verticalAlign=middle;whiteSpace=wrap;rounded=0;" parent="1" vertex="1">
          <mxGeometry x="170" y="345" width="220" height="10" as="geometry" />
        </mxCell>
        <mxCell id="LGxY-t_N6-eoSDwFkWoq-20" value="&amp;nbsp;männlich" style="rounded=1;whiteSpace=wrap;html=1;align=left;" parent="1" vertex="1">
          <mxGeometry x="170" y="390" width="110" height="20" as="geometry" />
        </mxCell>
        <mxCell id="LGxY-t_N6-eoSDwFkWoq-21" value="&amp;nbsp;m" style="rounded=1;whiteSpace=wrap;html=1;align=left;" parent="1" vertex="1">
          <mxGeometry x="290" y="390" width="110" height="20" as="geometry" />
        </mxCell>
        <mxCell id="LGxY-t_N6-eoSDwFkWoq-24" value="angezeigter Text" style="text;html=1;align=left;verticalAlign=middle;whiteSpace=wrap;rounded=0;" parent="1" vertex="1">
          <mxGeometry x="170" y="360" width="110" height="30" as="geometry" />
        </mxCell>
        <mxCell id="LGxY-t_N6-eoSDwFkWoq-25" value="gespeicherter Wert" style="text;html=1;align=left;verticalAlign=middle;whiteSpace=wrap;rounded=0;" parent="1" vertex="1">
          <mxGeometry x="290" y="360" width="110" height="30" as="geometry" />
        </mxCell>
        <mxCell id="LGxY-t_N6-eoSDwFkWoq-26" value="&amp;nbsp;weiblich" style="rounded=1;whiteSpace=wrap;html=1;align=left;" parent="1" vertex="1">
          <mxGeometry x="170" y="420" width="110" height="20" as="geometry" />
        </mxCell>
        <mxCell id="LGxY-t_N6-eoSDwFkWoq-27" value="&amp;nbsp;w" style="rounded=1;whiteSpace=wrap;html=1;align=left;" parent="1" vertex="1">
          <mxGeometry x="290" y="420" width="110" height="20" as="geometry" />
        </mxCell>
        <mxCell id="3RdM5F3vh5Wr9qzqA2hf-1" value="&amp;nbsp;divers" style="rounded=1;whiteSpace=wrap;html=1;align=left;" parent="1" vertex="1">
          <mxGeometry x="170" y="450" width="110" height="20" as="geometry" />
        </mxCell>
        <mxCell id="3RdM5F3vh5Wr9qzqA2hf-2" value="&amp;nbsp;d" style="rounded=1;whiteSpace=wrap;html=1;align=left;" parent="1" vertex="1">
          <mxGeometry x="290" y="450" width="110" height="20" as="geometry" />
        </mxCell>
        <mxCell id="3RdM5F3vh5Wr9qzqA2hf-4" value="&amp;nbsp;weiteres Wertepaar hinzufügen" style="rounded=1;whiteSpace=wrap;html=1;align=center;" parent="1" vertex="1">
          <mxGeometry x="170" y="480" width="230" height="20" as="geometry" />
        </mxCell>
        <mxCell id="3RdM5F3vh5Wr9qzqA2hf-5" value="weiteres Feld hinzufügen" style="rounded=1;whiteSpace=wrap;html=1;arcSize=12;" parent="1" vertex="1">
          <mxGeometry x="160" y="520" width="250" height="20" as="geometry" />
        </mxCell>
      </root>
    </mxGraphModel>
  </diagram>
</mxfile>
